<svg width="16" height="19" viewBox="0 0 16 19" fill="none" xmlns="http://www.w3.org/2000/svg">
<path d="M1.625 19.0004C1.15833 19.0004 0.771 18.8464 0.463 18.5384C0.154333 18.2297 0 17.8421 0 17.3754V4.62539C0 4.15872 0.154333 3.77139 0.463 3.46339C0.771 3.15472 1.15833 3.00039 1.625 3.00039H3.375V0.775391H4.45V3.00039H11.625V0.775391H12.625V3.00039H14.375C14.8417 3.00039 15.2293 3.15472 15.538 3.46339C15.846 3.77139 16 4.15872 16 4.62539V17.3754C16 17.8421 15.846 18.2297 15.538 18.5384C15.2293 18.8464 14.8417 19.0004 14.375 19.0004H1.625ZM1.625 18.0004H14.375C14.5417 18.0004 14.6873 17.9377 14.812 17.8124C14.9373 17.6877 15 17.5421 15 17.3754V8.62539H1V17.3754C1 17.5421 1.06267 17.6877 1.188 17.8124C1.31267 17.9377 1.45833 18.0004 1.625 18.0004ZM1 7.62539H15V4.62539C15 4.45872 14.9373 4.31306 14.812 4.18839C14.6873 4.06306 14.5417 4.00039 14.375 4.00039H1.625C1.45833 4.00039 1.31267 4.06306 1.188 4.18839C1.06267 4.31306 1 4.45872 1 4.62539V7.62539Z" fill="#3E4A5A"/>
</svg>
