<svg width="20" height="18" viewBox="0 0 20 18" fill="none" xmlns="http://www.w3.org/2000/svg">
<path d="M9.99844 17.4L8.74804 16.2744C7.08164 14.7912 5.70684 13.5204 4.62364 12.462C3.54044 11.4036 2.68604 10.462 2.06044 9.6372C1.43564 8.8124 1.00244 8.0584 0.760838 7.3752C0.519238 6.692 0.398438 5.992 0.398438 5.2752C0.398438 3.792 0.906837 2.542 1.92364 1.5252C2.94044 0.5084 4.19044 0 5.67364 0C6.49044 0 7.28204 0.1752 8.04844 0.5256C8.81484 0.8752 9.46484 1.3668 9.99844 2.0004C10.532 1.3668 11.182 0.8752 11.9484 0.5256C12.7148 0.1752 13.5064 0 14.3232 0C15.8064 0 17.0564 0.5084 18.0732 1.5252C19.09 2.542 19.5984 3.792 19.5984 5.2752C19.5984 5.992 19.4816 6.6836 19.248 7.35C19.0152 8.0164 18.586 8.758 17.9604 9.5748C17.3356 10.3916 16.4776 11.3376 15.3864 12.4128C14.2944 13.488 12.8984 14.792 11.1984 16.3248L9.99844 17.4ZM9.99844 14.9748C11.5488 13.5916 12.824 12.4124 13.824 11.4372C14.824 10.462 15.6196 9.612 16.2108 8.8872C16.8028 8.1624 17.2152 7.5168 17.448 6.9504C17.6816 6.3832 17.7984 5.8248 17.7984 5.2752C17.7984 4.292 17.4652 3.4668 16.7988 2.7996C16.1316 2.1332 15.3064 1.8 14.3232 1.8C13.74 1.8 13.1944 1.9208 12.6864 2.1624C12.1776 2.404 11.74 2.7416 11.3736 3.1752L10.4988 4.2H9.49804L8.62324 3.1752C8.25684 2.7416 7.81124 2.404 7.28644 2.1624C6.76084 1.9208 6.22324 1.8 5.67364 1.8C4.69044 1.8 3.86524 2.1332 3.19804 2.7996C2.53164 3.4668 2.19844 4.292 2.19844 5.2752C2.19844 5.8248 2.30684 6.3704 2.52364 6.912C2.74044 7.4544 3.13604 8.0836 3.71044 8.7996C4.28564 9.5164 5.07764 10.3664 6.08644 11.3496C7.09444 12.3336 8.39844 13.542 9.99844 14.9748Z" fill="#8999AE"/>
</svg>
