<svg width="16" height="12" viewBox="0 0 16 12" fill="none" xmlns="http://www.w3.org/2000/svg">
<path d="M1.5 12C1.08333 12 0.729333 11.854 0.438 11.562C0.146 11.2707 0 10.9167 0 10.5V1.5C0 1.08333 0.146 0.729334 0.438 0.438C0.729333 0.146 1.08333 0 1.5 0H14.5C14.9167 0 15.2707 0.146 15.562 0.438C15.854 0.729334 16 1.08333 16 1.5V10.5C16 10.9167 15.854 11.2707 15.562 11.562C15.2707 11.854 14.9167 12 14.5 12H1.5ZM8 7L1.5 3.271V10.5H14.5V3.271L8 7ZM8 5.229L14.5 1.5H1.5L8 5.229ZM1.5 3.271V1.5V10.5V3.271Z" fill="#00A88B"/>
</svg>
