<svg width="16" height="20" viewBox="0 0 16 20" fill="none" xmlns="http://www.w3.org/2000/svg">
<path d="M8 9.5C8.41667 9.5 8.77067 9.354 9.062 9.062C9.354 8.77067 9.5 8.41667 9.5 8C9.5 7.58333 9.354 7.22933 9.062 6.938C8.77067 6.646 8.41667 6.5 8 6.5C7.58333 6.5 7.22933 6.646 6.938 6.938C6.646 7.22933 6.5 7.58333 6.5 8C6.5 8.41667 6.646 8.77067 6.938 9.062C7.22933 9.354 7.58333 9.5 8 9.5ZM8 18.25C10.0833 16.4333 11.6873 14.6167 12.812 12.8C13.9373 10.9833 14.5 9.45 14.5 8.2C14.5 6.23333 13.871 4.625 12.613 3.375C11.3543 2.125 9.81667 1.5 8 1.5C6.18333 1.5 4.646 2.125 3.388 3.375C2.12933 4.625 1.5 6.23333 1.5 8.2C1.5 9.45 2.06267 10.9833 3.188 12.8C4.31267 14.6167 5.91667 16.4333 8 18.25ZM8 19.625C5.46667 17.375 3.58333 15.2917 2.35 13.375C1.11667 11.4583 0.5 9.73333 0.5 8.2C0.5 5.85 1.25433 3.97933 2.763 2.588C4.271 1.196 6.01667 0.5 8 0.5C9.98333 0.5 11.7293 1.196 13.238 2.588C14.746 3.97933 15.5 5.85 15.5 8.2C15.5 9.73333 14.8833 11.4583 13.65 13.375C12.4167 15.2917 10.5333 17.375 8 19.625Z" fill="#3E4A5A"/>
</svg>
