<svg width="96" height="36" viewBox="0 0 96 36" fill="none" xmlns="http://www.w3.org/2000/svg">
<mask id="mask0_1_16658" style="mask-type:alpha" maskUnits="userSpaceOnUse" x="0" y="0" width="36" height="36">
<rect width="36" height="36" fill="#D9D9D9"/>
</mask>
<g mask="url(#mask0_1_16658)">
<path d="M7.5 31.5C6.675 31.5 5.9685 31.2065 5.3805 30.6195C4.7935 30.0315 4.5 29.325 4.5 28.5H7.5V31.5ZM4.5 25.5V22.5H7.5V25.5H4.5ZM4.5 19.5V16.5H7.5V19.5H4.5ZM4.5 13.5V10.5H7.5V13.5H4.5ZM4.5 7.5C4.5 6.675 4.7935 5.9685 5.3805 5.3805C5.9685 4.7935 6.675 4.5 7.5 4.5V7.5H4.5ZM10.5 25.5V10.5H25.5V25.5H10.5ZM10.5 31.5V25.5H13.5V31.5H10.5ZM10.5 7.5V4.5H13.5V7.5H10.5ZM13.5 22.5H22.5V13.5H13.5V22.5ZM16.5 31.5V28.5H19.5V31.5H16.5ZM16.5 7.5V4.5H19.5V7.5H16.5ZM22.5 31.5V28.5H25.5V31.5H22.5ZM22.5 7.5V4.5H25.5V7.5H22.5ZM28.5 31.5V28.5H31.5C31.5 29.325 31.2065 30.0315 30.6195 30.6195C30.0315 31.2065 29.325 31.5 28.5 31.5ZM28.5 25.5V22.5H31.5V25.5H28.5ZM28.5 19.5V16.5H31.5V19.5H28.5ZM28.5 13.5V10.5H31.5V13.5H28.5ZM28.5 7.5V4.5C29.325 4.5 30.0315 4.7935 30.6195 5.3805C31.2065 5.9685 31.5 6.675 31.5 7.5H28.5Z" fill="white"/>
</g>
<path d="M43.709 6.3916V10.4346H45.9941C46.6621 10.4346 47.1807 10.2559 47.5498 9.89844C47.9248 9.54102 48.1123 9.0459 48.1123 8.41309C48.1123 7.79785 47.9189 7.30859 47.5322 6.94531C47.1455 6.57617 46.624 6.3916 45.9678 6.3916H43.709ZM43.709 12.3594V17H41.0547V4.31738H46.249C47.6963 4.31738 48.8213 4.67773 49.624 5.39844C50.4326 6.11328 50.8369 7.10059 50.8369 8.36035C50.8369 9.18652 50.6318 9.9248 50.2217 10.5752C49.8174 11.2197 49.2549 11.6826 48.5342 11.9639L51.2061 17H48.2002L45.8359 12.3594H43.709ZM61.0674 7.57812V17H58.5889V15.3037H58.5361C58.0439 16.5518 57.1035 17.1758 55.7148 17.1758C54.6836 17.1758 53.8604 16.8623 53.2451 16.2354C52.6299 15.6025 52.3223 14.7412 52.3223 13.6514V7.57812H54.8887V13.1152C54.8887 13.7422 55.0381 14.2197 55.3369 14.5479C55.6416 14.876 56.0781 15.04 56.6465 15.04C57.2148 15.04 57.666 14.8525 58 14.4775C58.334 14.1025 58.501 13.6016 58.501 12.9746V7.57812H61.0674ZM66.376 15.2949C66.9443 15.2949 67.4248 15.1309 67.8174 14.8027C68.2158 14.4688 68.415 14.0498 68.415 13.5459V12.8604L66.4287 12.9834C65.9482 13.0186 65.5762 13.1387 65.3125 13.3438C65.0547 13.5488 64.9258 13.8184 64.9258 14.1523C64.9258 14.5039 65.0576 14.7822 65.3213 14.9873C65.585 15.1924 65.9365 15.2949 66.376 15.2949ZM65.5322 17.1494C64.624 17.1494 63.8711 16.8828 63.2734 16.3496C62.6758 15.8164 62.377 15.1309 62.377 14.293C62.377 13.4375 62.6934 12.7666 63.3262 12.2803C63.959 11.7939 64.8643 11.5156 66.042 11.4453L68.415 11.3047V10.6807C68.415 10.2471 68.2715 9.90723 67.9844 9.66113C67.7031 9.41504 67.3193 9.29199 66.833 9.29199C66.3643 9.29199 65.9805 9.39746 65.6816 9.6084C65.3887 9.81934 65.21 10.1035 65.1455 10.4609H62.7988C62.8457 9.53516 63.2412 8.79102 63.9854 8.22852C64.7295 7.66016 65.7168 7.37598 66.9473 7.37598C68.1543 7.37598 69.1211 7.66309 69.8477 8.2373C70.5742 8.81152 70.9375 9.57324 70.9375 10.5225V17H68.459V15.5586H68.4062C68.1484 16.0508 67.7559 16.4404 67.2285 16.7275C66.7012 17.0088 66.1357 17.1494 65.5322 17.1494ZM72.5986 17V7.57812H75.0771V9.25684H75.1299C75.3877 8.65918 75.7627 8.20215 76.2549 7.88574C76.7529 7.56348 77.3594 7.40234 78.0742 7.40234C79.1172 7.40234 79.9229 7.71289 80.4912 8.33398C81.0596 8.95508 81.3438 9.81934 81.3438 10.9268V17H78.7773V11.4629C78.7773 10.8418 78.6309 10.3643 78.3379 10.0303C78.0449 9.69629 77.6143 9.5293 77.0459 9.5293C76.4775 9.5293 76.0205 9.71973 75.6748 10.1006C75.335 10.4814 75.165 10.9795 75.165 11.5947V17H72.5986ZM87.3203 14.9961C87.9648 14.9961 88.4746 14.7559 88.8496 14.2754C89.2305 13.7891 89.4209 13.1211 89.4209 12.2715C89.4209 11.4219 89.2305 10.7451 88.8496 10.2412C88.4688 9.7373 87.959 9.48535 87.3203 9.48535C86.6875 9.48535 86.1836 9.7373 85.8086 10.2412C85.4395 10.7393 85.2549 11.416 85.2549 12.2715C85.2549 13.127 85.4395 13.7949 85.8086 14.2754C86.1777 14.7559 86.6816 14.9961 87.3203 14.9961ZM87.2764 20.5508C86.0518 20.5508 85.0439 20.2812 84.2529 19.7422C83.4678 19.209 83.0225 18.5176 82.917 17.668H85.4307C85.5303 17.9961 85.7529 18.2598 86.0986 18.459C86.4502 18.6641 86.8662 18.7666 87.3467 18.7666C87.9971 18.7666 88.5039 18.5996 88.8672 18.2656C89.2305 17.9375 89.4121 17.4951 89.4121 16.9385V15.2861H89.3594C89.1367 15.7959 88.7646 16.2061 88.2432 16.5166C87.7217 16.8213 87.124 16.9736 86.4502 16.9736C85.29 16.9736 84.3613 16.5518 83.6641 15.708C82.9727 14.8643 82.627 13.7129 82.627 12.2539C82.627 10.7598 82.9727 9.58203 83.6641 8.7207C84.3555 7.85938 85.2988 7.42871 86.4941 7.42871C87.1621 7.42871 87.751 7.58984 88.2607 7.91211C88.7705 8.23438 89.1514 8.6709 89.4033 9.22168H89.4473V7.57812H91.9785V16.8682C91.9785 17.9873 91.5479 18.8809 90.6865 19.5488C89.8311 20.2168 88.6943 20.5508 87.2764 20.5508ZM41.0547 19.3174H46.2139C47.5205 19.3174 48.5781 19.7158 49.3867 20.5127C50.2012 21.3096 50.6084 22.3584 50.6084 23.6592C50.6084 24.9541 50.1895 26.0029 49.3516 26.8057C48.5137 27.6025 47.4238 28.001 46.082 28.001H43.709V32H41.0547V19.3174ZM43.709 21.418V25.9268H45.502C46.2637 25.9268 46.8555 25.7305 47.2773 25.3379C47.6992 24.9453 47.9102 24.3887 47.9102 23.668C47.9102 22.9473 47.6992 22.3936 47.2773 22.0068C46.8613 21.6143 46.2725 21.418 45.5107 21.418H43.709ZM55.873 24.2744C55.3164 24.2744 54.8506 24.4648 54.4756 24.8457C54.1064 25.2266 53.8984 25.7129 53.8516 26.3047H57.8506C57.8213 25.7012 57.625 25.2119 57.2617 24.8369C56.9043 24.4619 56.4414 24.2744 55.873 24.2744ZM57.8857 29.1172H60.2412C60.1006 30.043 59.6377 30.79 58.8525 31.3584C58.0732 31.9209 57.1035 32.2021 55.9434 32.2021C54.4961 32.2021 53.3594 31.7686 52.5332 30.9014C51.7129 30.0342 51.3027 28.8447 51.3027 27.333C51.3027 25.8271 51.7129 24.626 52.5332 23.7295C53.3535 22.8271 54.458 22.376 55.8467 22.376C57.2119 22.376 58.2988 22.8037 59.1074 23.6592C59.916 24.5146 60.3203 25.6602 60.3203 27.0957V27.8779H53.8252V28.0361C53.8252 28.71 54.0215 29.2578 54.4141 29.6797C54.8125 30.0957 55.3369 30.3037 55.9873 30.3037C56.4561 30.3037 56.8604 30.1982 57.2002 29.9873C57.54 29.7705 57.7686 29.4805 57.8857 29.1172ZM61.6475 32V22.5781H64.126V24.2744H64.1787C64.3428 23.6768 64.6182 23.2197 65.0049 22.9033C65.3916 22.5869 65.8633 22.4287 66.4199 22.4287C66.6895 22.4287 66.9326 22.4609 67.1494 22.5254V24.7842C66.9092 24.6846 66.5986 24.6348 66.2178 24.6348C65.585 24.6348 65.0928 24.8193 64.7412 25.1885C64.3896 25.5576 64.2139 26.0732 64.2139 26.7354V32H61.6475ZM68.0459 25.3467C68.0459 24.4502 68.4062 23.7324 69.127 23.1934C69.8477 22.6484 70.8115 22.376 72.0186 22.376C73.1963 22.376 74.1426 22.6514 74.8574 23.2021C75.5723 23.7529 75.9385 24.4854 75.9561 25.3994H73.5918C73.5625 25.0186 73.4043 24.7197 73.1172 24.5029C72.8359 24.2861 72.458 24.1777 71.9834 24.1777C71.5381 24.1777 71.1807 24.2715 70.9111 24.459C70.6475 24.6406 70.5156 24.8838 70.5156 25.1885C70.5156 25.6455 70.9258 25.9707 71.7461 26.1641L73.5479 26.5508C74.4912 26.7617 75.168 27.0693 75.5781 27.4736C75.9941 27.8721 76.2021 28.4229 76.2021 29.126C76.2021 30.0518 75.8154 30.7959 75.042 31.3584C74.2686 31.9209 73.2578 32.2021 72.0098 32.2021C70.7676 32.2021 69.7744 31.9268 69.0303 31.376C68.2861 30.8252 67.8789 30.084 67.8086 29.1523H70.3135C70.3779 29.5508 70.5596 29.8584 70.8584 30.0752C71.1631 30.292 71.5703 30.4004 72.0801 30.4004C72.5664 30.4004 72.9473 30.3125 73.2227 30.1367C73.5039 29.9551 73.6445 29.709 73.6445 29.3984C73.6445 29.1582 73.5566 28.9678 73.3809 28.8271C73.2051 28.6807 72.9062 28.5576 72.4844 28.458L70.7441 28.0713C68.9453 27.6611 68.0459 26.7529 68.0459 25.3467ZM77.5293 32V22.5781H80.0957V32H77.5293ZM79.7881 21.1543C79.5244 21.4121 79.1992 21.541 78.8125 21.541C78.4258 21.541 78.1006 21.4121 77.8369 21.1543C77.5732 20.8965 77.4414 20.583 77.4414 20.2139C77.4414 19.8389 77.5732 19.5254 77.8369 19.2734C78.1006 19.0156 78.4258 18.8867 78.8125 18.8867C79.1992 18.8867 79.5244 19.0156 79.7881 19.2734C80.0518 19.5254 80.1836 19.8389 80.1836 20.2139C80.1836 20.583 80.0518 20.8965 79.7881 21.1543ZM81.6514 25.3467C81.6514 24.4502 82.0117 23.7324 82.7324 23.1934C83.4531 22.6484 84.417 22.376 85.624 22.376C86.8018 22.376 87.748 22.6514 88.4629 23.2021C89.1777 23.7529 89.5439 24.4854 89.5615 25.3994H87.1973C87.168 25.0186 87.0098 24.7197 86.7227 24.5029C86.4414 24.2861 86.0635 24.1777 85.5889 24.1777C85.1436 24.1777 84.7861 24.2715 84.5166 24.459C84.2529 24.6406 84.1211 24.8838 84.1211 25.1885C84.1211 25.6455 84.5312 25.9707 85.3516 26.1641L87.1533 26.5508C88.0967 26.7617 88.7734 27.0693 89.1836 27.4736C89.5996 27.8721 89.8076 28.4229 89.8076 29.126C89.8076 30.0518 89.4209 30.7959 88.6475 31.3584C87.874 31.9209 86.8633 32.2021 85.6152 32.2021C84.373 32.2021 83.3799 31.9268 82.6357 31.376C81.8916 30.8252 81.4844 30.084 81.4141 29.1523H83.9189C83.9834 29.5508 84.165 29.8584 84.4639 30.0752C84.7686 30.292 85.1758 30.4004 85.6855 30.4004C86.1719 30.4004 86.5527 30.3125 86.8281 30.1367C87.1094 29.9551 87.25 29.709 87.25 29.3984C87.25 29.1582 87.1621 28.9678 86.9863 28.8271C86.8105 28.6807 86.5117 28.5576 86.0898 28.458L84.3496 28.0713C82.5508 27.6611 81.6514 26.7529 81.6514 25.3467ZM93.7627 31.6924C93.4873 31.9678 93.1533 32.1055 92.7607 32.1055C92.3682 32.1055 92.0342 31.9678 91.7588 31.6924C91.4834 31.417 91.3457 31.083 91.3457 30.6904C91.3457 30.2979 91.4834 29.9639 91.7588 29.6885C92.0342 29.4131 92.3682 29.2754 92.7607 29.2754C93.1533 29.2754 93.4873 29.4131 93.7627 29.6885C94.0381 29.9639 94.1758 30.2979 94.1758 30.6904C94.1758 31.083 94.0381 31.417 93.7627 31.6924Z" fill="white"/>
</svg>
